<svg xmlns="http://www.w3.org/2000/svg" version="1.1" xmlns:xlink="http://www.w3.org/1999/xlink" width="1000" height="1000"><g clip-path="url(#SvgjsClipPath1210)"><rect width="1000" height="1000" fill="#e4c8f1"></rect><g transform="matrix(1.4,0,0,1.4,150,150)"><svg xmlns="http://www.w3.org/2000/svg" version="1.1" xmlns:xlink="http://www.w3.org/1999/xlink" width="500" height="500"><svg xmlns="http://www.w3.org/2000/svg" xmlns:xlink="http://www.w3.org/1999/xlink" width="500" zoomAndPan="magnify" viewBox="0 0 375 374.999991" height="500" preserveAspectRatio="xMidYMid meet" version="1.0"><defs><g></g><clipPath id="SvgjsClipPath1210"><rect width="1000" height="1000" x="0" y="0" rx="350" ry="350"></rect></clipPath></defs><g fill="#ffffff" fill-opacity="1"><g transform="translate(43.008729, 361.154714)"><g><path d="M 0 0 L 0 -3.078125 C 3.894531 -3.078125 7.632812 -5.84375 11.21875 -11.375 C 14.8125 -16.914062 18.195312 -23.992188 21.375 -32.609375 C 24.550781 -41.222656 27.472656 -50.347656 30.140625 -59.984375 C 32.804688 -69.617188 35.164062 -78.539062 37.21875 -86.75 C 42.550781 -107.457031 47.421875 -126.578125 51.828125 -144.109375 C 56.242188 -161.648438 60.445312 -178.46875 64.4375 -194.5625 C 68.4375 -210.65625 72.4375 -226.75 76.4375 -242.84375 C 80.4375 -258.945312 84.691406 -275.816406 89.203125 -293.453125 C 93.710938 -311.085938 98.535156 -330.160156 103.671875 -350.671875 L 205.484375 -350.671875 C 210.816406 -330.160156 215.6875 -311.085938 220.09375 -293.453125 C 224.5 -275.816406 228.753906 -258.945312 232.859375 -242.84375 C 236.960938 -226.75 241.0625 -210.65625 245.15625 -194.5625 C 249.257812 -178.46875 253.460938 -161.648438 257.765625 -144.109375 C 262.078125 -126.578125 266.796875 -107.457031 271.921875 -86.75 C 273.972656 -78.539062 276.332031 -69.617188 279 -59.984375 C 281.664062 -50.347656 284.585938 -41.222656 287.765625 -32.609375 C 290.941406 -23.992188 294.320312 -16.914062 297.90625 -11.375 C 301.5 -5.84375 305.242188 -3.078125 309.140625 -3.078125 L 309.140625 0 L 154.734375 0 L 154.734375 -3.078125 C 162.316406 -8.816406 167.179688 -17.117188 169.328125 -27.984375 C 171.484375 -38.859375 172 -51.21875 170.875 -65.0625 C 169.75 -78.90625 167.648438 -93.003906 164.578125 -107.359375 L 77.828125 -107.359375 C 79.878906 -83.566406 84.644531 -62.851562 92.125 -45.21875 C 99.613281 -27.582031 110.535156 -13.535156 124.890625 -3.078125 L 124.890625 0 Z M 106.4375 -340.21875 C 96.175781 -295.300781 88.328125 -253.769531 82.890625 -215.625 C 77.460938 -177.488281 75.671875 -143.453125 77.515625 -113.515625 L 163.34375 -113.515625 C 161.5 -121.503906 159.601562 -129.34375 157.65625 -137.03125 C 155.707031 -144.726562 153.910156 -152.0625 152.265625 -159.03125 C 148.578125 -173.382812 145.296875 -186.203125 142.421875 -197.484375 C 139.546875 -208.765625 136.828125 -219.476562 134.265625 -229.625 C 131.703125 -239.78125 129.085938 -250.1875 126.421875 -260.84375 C 123.753906 -271.507812 120.832031 -283.195312 117.65625 -295.90625 C 114.476562 -308.625 110.738281 -323.394531 106.4375 -340.21875 Z M 106.4375 -340.21875 "></path></g></g></g></svg></svg></g></g></svg>